# FreeCAD v0.19 build24291 (Git) Arch module
# http://www.freecadweb.org
mtllib cylinder.mtl
o cylinder
usemtl color_cccccc
v -29.96068 1.535464 -150.0
v -29.96068 1.535464 150.0
v -29.337202 -6.27125 -150.0
v -29.337202 -6.27125 150.0
v -28.542387 9.237539 -150.0
v -28.542387 9.237539 150.0
v -26.714441 -13.650589 -150.0
v -26.714441 -13.650589 150.0
v -25.178978 16.310091 -150.0
v -25.178978 16.310091 150.0
v -22.271137 -20.099663 -150.0
v -22.271137 -20.099663 150.0
v -20.099663 22.271137 -150.0
v -20.099663 22.271137 150.0
v -16.310091 -25.178978 -150.0
v -16.310091 -25.178978 150.0
v -13.650589 26.714441 -150.0
v -13.650589 26.714441 150.0
v -9.237539 -28.542387 -150.0
v -9.237539 -28.542387 150.0
v -6.27125 29.337202 -150.0
v -6.27125 29.337202 150.0
v -1.535464 -29.96068 -150.0
v -1.535464 -29.96068 150.0
v 1.535464 29.96068 -150.0
v 1.535464 29.96068 150.0
v 6.27125 -29.337202 -150.0
v 6.27125 -29.337202 150.0
v 9.237539 28.542387 -150.0
v 9.237539 28.542387 150.0
v 13.650589 -26.714441 -150.0
v 13.650589 -26.714441 150.0
v 16.310091 25.178978 -150.0
v 16.310091 25.178978 150.0
v 20.099663 -22.271137 -150.0
v 20.099663 -22.271137 150.0
v 22.271137 20.099663 -150.0
v 22.271137 20.099663 150.0
v 25.178978 -16.310091 -150.0
v 25.178978 -16.310091 150.0
v 26.714441 13.650589 -150.0
v 26.714441 13.650589 150.0
v 28.542387 -9.237539 -150.0
v 28.542387 -9.237539 150.0
v 29.337202 6.27125 -150.0
v 29.337202 6.27125 150.0
v 29.96068 -1.535464 -150.0
v 29.96068 -1.535464 150.0
vn 0.0 0.0 -1.0
vn 0.0 0.0 -1.0
vn 0.0 0.0 -1.0
vn 0.0 0.0 -1.0
vn 0.0 0.0 -1.0
vn 0.0 0.0 -1.0
vn 0.0 0.0 -1.0
vn 0.0 0.0 -1.0
vn 0.0 0.0 -1.0
vn 0.0 0.0 -1.0
vn 0.0 0.0 -1.0
vn -0.0 0.0 -1.0
vn -0.0 0.0 -1.0
vn -0.0 0.0 -1.0
vn -0.0 0.0 -1.0
vn -0.0 0.0 -1.0
vn -0.0 0.0 -1.0
vn -0.0 0.0 -1.0
vn -0.0 0.0 -1.0
vn -0.0 0.0 -1.0
vn -0.0 0.0 -1.0
vn -0.0 0.0 -1.0
vn -0.0 0.0 1.0
vn 0.0 0.0 1.0
vn 0.0 0.0 1.0
vn 0.0 0.0 1.0
vn 0.0 0.0 1.0
vn 0.0 0.0 1.0
vn 0.0 0.0 1.0
vn 0.0 0.0 1.0
vn 0.0 0.0 1.0
vn 0.0 0.0 1.0
vn 0.0 0.0 1.0
vn 0.0 0.0 1.0
vn 0.0 0.0 1.0
vn 0.0 0.0 1.0
vn 0.0 0.0 1.0
vn 0.0 0.0 1.0
vn 0.0 0.0 1.0
vn 0.0 0.0 1.0
vn 0.0 0.0 1.0
vn 0.0 0.0 1.0
vn 0.0 0.0 1.0
vn 0.0 0.0 1.0
vn -0.07961083203554153 0.9968260526657104 0.0
vn -0.07961083203554153 0.9968260526657104 0.0
vn -0.3348958492279053 0.9422551393508911 0.0
vn -0.3348958492279053 0.9422551393508911 0.0
vn -0.5673578977584839 0.8234712481498718 0.0
vn -0.5673578977584839 0.8234712481498718 0.0
vn -0.7611557841300964 0.6485691070556641 0.0
vn -0.7611557841300964 0.6485691070556641 0.0
vn -0.9030821323394775 0.42946794629096985 0.0
vn -0.9030821323394775 0.42946794629096985 0.0
vn -0.9834648370742798 0.18109941482543945 0.0
vn -0.9834648370742798 0.18109941482543945 0.0
vn -0.9968260526657104 -0.07961083203554153 -0.0
vn -0.9968260526657104 -0.07961083203554153 0.0
vn -0.9422551393508911 -0.3348958492279053 -0.0
vn -0.9422551393508911 -0.3348958492279053 0.0
vn -0.8234712481498718 -0.5673578977584839 -0.0
vn -0.8234712481498718 -0.5673578977584839 0.0
vn -0.6485691070556641 -0.7611557841300964 0.0
vn -0.6485691070556641 -0.7611557841300964 -0.0
vn -0.42946794629096985 -0.9030821323394775 0.0
vn -0.42946794629096985 -0.9030821323394775 -0.0
vn -0.18109941482543945 -0.9834648370742798 0.0
vn -0.18109941482543945 -0.9834648370742798 -0.0
vn 0.07961083203554153 -0.9968260526657104 0.0
vn 0.07961083203554153 -0.9968260526657104 0.0
vn 0.3348958492279053 -0.9422551393508911 0.0
vn 0.3348958492279053 -0.9422551393508911 0.0
vn 0.5673578977584839 -0.8234712481498718 0.0
vn 0.5673578977584839 -0.8234712481498718 0.0
vn 0.7611557841300964 -0.6485691070556641 0.0
vn 0.7611557841300964 -0.6485691070556641 0.0
vn 0.9030821323394775 -0.42946794629096985 0.0
vn 0.9030821323394775 -0.42946794629096985 0.0
vn 0.9834648370742798 -0.18109941482543945 0.0
vn 0.9834648370742798 -0.18109941482543945 0.0
vn 0.9968260526657104 0.07961083203554153 -0.0
vn 0.9968260526657104 0.07961083203554153 0.0
vn 0.9422551393508911 0.3348958492279053 -0.0
vn 0.9422551393508911 0.3348958492279053 0.0
vn 0.8234712481498718 0.5673578977584839 -0.0
vn 0.8234712481498718 0.5673578977584839 0.0
vn 0.6485691070556641 0.7611557841300964 -0.0
vn 0.6485691070556641 0.7611557841300964 0.0
vn 0.42946794629096985 0.9030821323394775 -0.0
vn 0.42946794629096985 0.9030821323394775 0.0
vn 0.18109941482543945 0.9834648370742798 -0.0
vn 0.18109941482543945 0.9834648370742798 0.0
f 1//1 5//1 3//1 
f 7//2 3//2 5//2 
f 9//3 7//3 5//3 
f 11//4 7//4 9//4 
f 13//5 11//5 9//5 
f 15//6 11//6 13//6 
f 17//7 15//7 13//7 
f 19//8 15//8 17//8 
f 21//9 19//9 17//9 
f 23//10 19//10 21//10 
f 25//11 23//11 21//11 
f 27//12 23//12 25//12 
f 29//13 27//13 25//13 
f 31//14 27//14 29//14 
f 33//15 31//15 29//15 
f 35//16 31//16 33//16 
f 37//17 35//17 33//17 
f 39//18 35//18 37//18 
f 41//19 39//19 37//19 
f 43//20 39//20 41//20 
f 45//21 43//21 41//21 
f 47//22 43//22 45//22 
f 2//23 4//23 6//23 
f 8//24 6//24 4//24 
f 10//25 6//25 8//25 
f 12//26 10//26 8//26 
f 14//27 10//27 12//27 
f 16//28 14//28 12//28 
f 18//29 14//29 16//29 
f 20//30 18//30 16//30 
f 22//31 18//31 20//31 
f 24//32 22//32 20//32 
f 26//33 22//33 24//33 
f 28//34 26//34 24//34 
f 30//35 26//35 28//35 
f 32//36 30//36 28//36 
f 34//37 30//37 32//37 
f 36//38 34//38 32//38 
f 38//39 34//39 36//39 
f 40//40 38//40 36//40 
f 42//41 38//41 40//41 
f 44//42 42//42 40//42 
f 46//43 42//43 44//43 
f 48//44 46//44 44//44 
f 21//45 22//45 25//45 
f 26//46 25//46 22//46 
f 17//47 18//47 21//47 
f 22//48 21//48 18//48 
f 13//49 14//49 17//49 
f 18//50 17//50 14//50 
f 10//51 14//51 9//51 
f 13//52 9//52 14//52 
f 6//53 10//53 5//53 
f 9//54 5//54 10//54 
f 2//55 6//55 1//55 
f 5//56 1//56 6//56 
f 4//57 2//57 3//57 
f 1//58 3//58 2//58 
f 8//59 4//59 7//59 
f 3//60 7//60 4//60 
f 12//61 8//61 11//61 
f 7//62 11//62 8//62 
f 15//63 16//63 11//63 
f 12//64 11//64 16//64 
f 19//65 20//65 15//65 
f 16//66 15//66 20//66 
f 23//67 24//67 19//67 
f 20//68 19//68 24//68 
f 27//69 28//69 23//69 
f 24//70 23//70 28//70 
f 31//71 32//71 27//71 
f 28//72 27//72 32//72 
f 35//73 36//73 31//73 
f 32//74 31//74 36//74 
f 35//75 39//75 36//75 
f 40//76 36//76 39//76 
f 39//77 43//77 40//77 
f 44//78 40//78 43//78 
f 43//79 47//79 44//79 
f 48//80 44//80 47//80 
f 47//81 45//81 48//81 
f 46//82 48//82 45//82 
f 45//83 41//83 46//83 
f 42//84 46//84 41//84 
f 41//85 37//85 42//85 
f 38//86 42//86 37//86 
f 33//87 34//87 37//87 
f 38//88 37//88 34//88 
f 29//89 30//89 33//89 
f 34//90 33//90 30//90 
f 25//91 26//91 29//91 
f 30//92 29//92 26//92 
